# xmcd CD database file
#
# Track frame offsets:
#	150
#	34111
#	69898
#	86585
#	112952
#	141443
#	176681
#	196287
#	229758
#	271350
#
# Disc length: 4612 seconds
#
# Revision: 0
# Processed by: cddbd v1.5.2PL0 Copyright (c) Steve Scherf et al.
# Submitted via: CDex 1.51
#
DISCID=8612020a
DTITLE=Rypdal,Terje - Compilation
DYEAR=2001
DGENRE=Jazz
TTITLE0=Better Off Without You
TTITLE1=Innseiling
TTITLE2=Topplue, Votter and Skjerf
TTITLE3=Once Upon A Time
TTITLE4=Oernen
TTITLE5=Icing
TTITLE6=Back Of J
TTITLE7=Seasons
TTITLE8=Mirage
TTITLE9=Midnite
EXTD=YEAR: 2001
EXTT0=
EXTT1=
EXTT2=
EXTT3=
EXTT4=
EXTT5=
EXTT6=
EXTT7=
EXTT8=
EXTT9=
PLAYORDER=
